# xmcd CD database file
#
# Track frame offsets:
#	150
#	14208
#	28445
#	41508
#	55003
#	67585
#	80927
#	94314
#	108638
#	120337
#	134827
#	146542
#	158002
#	171138
#	185032
#	198578
#	212530
#	225300
#	238620
#	251903
#	262550
#	273616
#	286389
#	300139
#
# Disc length: 4178 seconds
#
# Revision: 0
# Processed by: cddbd v1.5PL3 Copyright (c) Steve Scherf et al.
# Submitted via: CDex 1.51
#
DISCID=5b105018
DTITLE=John Lee Hooker - The Legendary Modern Recordings 1948-1954
DYEAR=1900
DGENRE=Blues
TTITLE0=Boogie Chillen
TTITLE1=Sally Mae
TTITLE2=Hoogie Boogie
TTITLE3=Hobo Blues
TTITLE4=Weeping Willow Boogie
TTITLE5=Drifting from Door to Door
TTITLE6=Crawling King Snake
TTITLE7=Women in My Life
TTITLE8=Howlin' Wolf
TTITLE9=Playing the Races
TTITLE10=Let Your Daddy Ride
TTITLE11=Queen Bee
TTITLE12=Wednesday Evening Blues
TTITLE13=I'm in the Mood
TTITLE14=Tease Me Baby
TTITLE15=Turn Over a New Leaf
TTITLE16=Rock House Boogie
TTITLE17=Too Much Boogie
TTITLE18=Need Somebody
TTITLE19=Gotta Boogie
TTITLE20=Jump Me One More Time
TTITLE21=Down Child
TTITLE22=Bad Boy
TTITLE23=Please Take Me Back
EXTD=
EXTT0=
EXTT1=
EXTT2=
EXTT3=
EXTT4=
EXTT5=
EXTT6=
EXTT7=
EXTT8=
EXTT9=
EXTT10=
EXTT11=
EXTT12=
EXTT13=
EXTT14=
EXTT15=
EXTT16=
EXTT17=
EXTT18=
EXTT19=
EXTT20=
EXTT21=
EXTT22=
EXTT23=
PLAYORDER=
